<svg xmlns="http://www.w3.org/2000/svg" viewBox="0 0 128 128">
  <defs>
    <linearGradient id="g1" x1="0" x2="1" y1="0" y2="1">
      <stop offset="0" stop-color="#60d4cf"/>
      <stop offset="1" stop-color="#7c5fd6"/>
    </linearGradient>
    <linearGradient id="g2" x1="0" x2="1" y1="0" y2="1">
      <stop offset="0" stop-color="#9c7de5"/>
      <stop offset="1" stop-color="#4bb7b0"/>
    </linearGradient>
  </defs>
  <rect width="128" height="128" rx="34" fill="#fbf8ff"/>
  <path d="M64 18c14 16 17 34 4 52-17-12-20-31-4-52Z" fill="#7c5fd6"/>
  <path d="M34 38c21 5 33 17 33 38-21 0-34-14-33-38Z" fill="url(#g1)"/>
  <path d="M93 42c-1 22-13 35-34 38 0-22 12-35 34-38Z" fill="url(#g2)"/>
  <path d="M63 73c-8 15-10 27-8 37" fill="none" stroke="#433463" stroke-width="7" stroke-linecap="round"/>
</svg>
