<svg width="420" height="420" viewBox="0 0 420 420" xmlns="http://www.w3.org/2000/svg" aria-hidden="true">
  <defs><linearGradient id="stone" x1="0" y1="0" x2="1" y2="1"><stop stop-color="#FFFDF7"/><stop offset="1" stop-color="#D5C7B5"/></linearGradient></defs>
  <g fill="url(#stone)" stroke="#B8AA96" stroke-width="3" opacity=".72">
    <path d="M215 68 C168 66 126 104 124 164 C121 228 158 272 202 281 C249 291 294 250 302 190 C313 108 266 72 215 68Z"/>
    <path d="M143 142 C178 92 240 82 287 127 C266 114 230 112 198 126 C172 137 156 153 143 142Z"/>
    <path d="M168 294 C150 322 122 340 92 352 C156 376 246 378 324 350 C282 336 258 316 244 290 C218 303 193 304 168 294Z"/>
    <path d="M174 178 C188 169 204 170 218 178 M240 178 C256 168 273 169 287 178 M209 226 C228 234 251 233 268 224" fill="none" stroke="#9B8E7E"/>
  </g>
</svg>