<svg width="420" height="620" viewBox="0 0 420 620" xmlns="http://www.w3.org/2000/svg" aria-hidden="true">
  <defs><linearGradient id="m" x1="0" y1="0" x2="1" y2="1"><stop stop-color="#FFFDF8"/><stop offset="1" stop-color="#D8CBB8"/></linearGradient></defs>
  <g fill="url(#m)" stroke="#BDAF99" stroke-width="3" opacity=".78">
    <path d="M64 106 C38 92 31 54 58 32 C92 4 126 28 126 64 C126 96 94 118 64 106Z"/>
    <path d="M294 106 C268 92 261 54 288 32 C322 4 356 28 356 64 C356 96 324 118 294 106Z"/>
    <rect x="76" y="104" width="268" height="44" rx="8"/>
    <rect x="96" y="148" width="228" height="386"/>
    <path d="M112 154 V528 M148 154 V528 M184 154 V528 M220 154 V528 M256 154 V528 M292 154 V528" opacity=".50"/>
    <rect x="76" y="534" width="268" height="46" rx="8"/>
  </g>
</svg>