<svg xmlns="http://www.w3.org/2000/svg" viewBox="0 0 512 512" role="img" aria-label="VITA">
  <defs>
    <linearGradient id="bg" x1="0" x2="1" y1="0" y2="1">
      <stop offset="0" stop-color="#ffffff"/>
      <stop offset="1" stop-color="#f6f1ff"/>
    </linearGradient>
    <linearGradient id="petal" x1="0" x2="1" y1="0" y2="1">
      <stop offset="0" stop-color="#dcc8f3"/>
      <stop offset="1" stop-color="#7b5db8"/>
    </linearGradient>
  </defs>
  <rect width="512" height="512" rx="118" fill="url(#bg)"/>
  <g>
    <path d="M245 189c-43-58-111-73-141-22-27 47-5 109 53 150 33 23 69 38 101 45-21-39-25-111-13-173Z" fill="url(#petal)"/>
    <path d="M267 189c43-58 111-73 141-22 27 47 5 109-53 150-33 23-69 38-101 45 21-39 25-111 13-173Z" fill="url(#petal)"/>
    <path d="M183 184c31 22 55 51 73 106" stroke="#ffffff" stroke-width="18" stroke-linecap="round" fill="none"/>
    <path d="M329 184c-31 22-55 51-73 106" stroke="#ffffff" stroke-width="18" stroke-linecap="round" fill="none"/>
    <path d="M256 292c-16 33-38 63-62 84 25-4 46-14 62-31 16 17 37 27 62 31-24-21-46-51-62-84Z" fill="#ffffff"/>
    <circle cx="256" cy="154" r="34" fill="#b496e6"/>
    <path d="M256 349c15 22 17 40 0 61-17-21-15-39 0-61Z" fill="#6bc5c0"/>
    <circle cx="256" cy="84" r="14" fill="#6bc5c0"/>
    <circle cx="192" cy="102" r="9" fill="#dcc8f3"/>
    <circle cx="320" cy="102" r="9" fill="#dcc8f3"/>
    <circle cx="149" cy="136" r="7" fill="#b496e6"/>
    <circle cx="363" cy="136" r="7" fill="#b496e6"/>
  </g>
</svg>
