<svg width="520" height="520" viewBox="0 0 520 520" xmlns="http://www.w3.org/2000/svg" role="img" aria-label="VITA ONE">
  <defs>
    <linearGradient id="bronze" x1="0" y1="0" x2="1" y2="1">
      <stop offset="0%" stop-color="#C8A15E"/>
      <stop offset="100%" stop-color="#8B6A34"/>
    </linearGradient>
    <linearGradient id="olive" x1="0" y1="0" x2="1" y2="1">
      <stop offset="0%" stop-color="#6E7A53"/>
      <stop offset="100%" stop-color="#2F3F35"/>
    </linearGradient>
  </defs>
  <rect width="520" height="520" rx="128" fill="#F7F1E8"/>
  <g transform="translate(118 76)" fill="none" stroke-linecap="round" stroke-linejoin="round">
    <path d="M144 348 C143 279 151 218 176 168 C198 125 226 92 258 54" stroke="#3E382F" stroke-width="15"/>
    <path d="M157 213 C94 194 52 144 42 82 C103 90 154 138 157 213Z" fill="url(#olive)" stroke="#B08A4B" stroke-width="8"/>
    <path d="M191 154 C155 108 151 52 184 10 C225 55 226 111 191 154Z" fill="url(#bronze)" stroke="#B08A4B" stroke-width="8"/>
    <path d="M222 128 C259 81 309 60 366 69 C339 122 285 152 222 128Z" fill="url(#bronze)" stroke="#B08A4B" stroke-width="8"/>
    <path d="M145 278 C86 260 41 215 22 158 C88 159 137 204 145 278Z" fill="url(#olive)" stroke="#B08A4B" stroke-width="8"/>
    <path d="M185 238 C230 198 288 187 344 204 C304 252 242 269 185 238Z" fill="url(#bronze)" stroke="#B08A4B" stroke-width="8"/>
  </g>
</svg>