<svg width="520" height="520" viewBox="0 0 520 520" xmlns="http://www.w3.org/2000/svg" role="img" aria-label="VITA">
  <defs>
    <linearGradient id="p" x1="0" y1="0" x2="1" y2="1"><stop offset="0%" stop-color="#A58BEA"/><stop offset="100%" stop-color="#6E56CF"/></linearGradient>
    <linearGradient id="t" x1="0" y1="0" x2="1" y2="1"><stop offset="0%" stop-color="#56D1CA"/><stop offset="100%" stop-color="#168C89"/></linearGradient>
  </defs>
  <rect width="520" height="520" rx="126" fill="#FBF8FF"/>
  <g transform="translate(74 52)">
    <path d="M180 380 C176 315 183 250 204 206 C222 169 248 137 284 98" fill="none" stroke="#222043" stroke-width="17" stroke-linecap="round"/>
    <path d="M197 214 C134 193 84 151 64 84 C132 94 187 139 197 214Z" fill="url(#t)"/>
    <path d="M232 165 C187 112 177 52 206 0 C260 48 268 112 232 165Z" fill="url(#p)"/>
    <path d="M260 128 C299 72 357 39 424 42 C399 111 339 156 260 128Z" fill="url(#p)"/>
    <path d="M186 293 C121 272 70 229 35 166 C102 164 170 203 186 293Z" fill="url(#t)"/>
    <path d="M213 258 C255 205 315 177 386 182 C359 250 293 293 213 258Z" fill="url(#p)"/>
  </g>
</svg>
