<svg width="520" height="520" viewBox="0 0 520 520" xmlns="http://www.w3.org/2000/svg" role="img" aria-label="VITA">
  <defs>
    <linearGradient id="purple" x1="0" y1="0" x2="1" y2="1">
      <stop offset="0%" stop-color="#B49CF3"/>
      <stop offset="100%" stop-color="#6E56CF"/>
    </linearGradient>
    <linearGradient id="teal" x1="0" y1="0" x2="1" y2="1">
      <stop offset="0%" stop-color="#69D7D0"/>
      <stop offset="100%" stop-color="#168C89"/>
    </linearGradient>
    <filter id="shadow" x="-20%" y="-20%" width="140%" height="140%">
      <feDropShadow dx="0" dy="16" stdDeviation="18" flood-color="#2D2558" flood-opacity=".16"/>
    </filter>
  </defs>
  <rect width="520" height="520" rx="132" fill="#FBF8FF"/>
  <g transform="translate(72 48)" filter="url(#shadow)">
    <path d="M182 386 C178 318 186 251 208 205 C226 166 254 134 292 94" fill="none" stroke="#282344" stroke-width="18" stroke-linecap="round"/>
    <path d="M200 214 C135 194 82 151 61 82 C132 93 190 139 200 214Z" fill="url(#teal)"/>
    <path d="M236 164 C190 112 181 53 211 0 C266 48 273 112 236 164Z" fill="url(#purple)"/>
    <path d="M263 127 C305 70 365 39 432 44 C405 113 340 157 263 127Z" fill="url(#purple)"/>
    <path d="M189 296 C121 274 68 229 33 164 C102 164 171 203 189 296Z" fill="url(#teal)"/>
    <path d="M217 260 C260 205 322 177 394 183 C365 254 296 295 217 260Z" fill="url(#purple)"/>
  </g>
</svg>